<?xml version="1.0" standalone="no"?>
<!DOCTYPE svg PUBLIC "-//W3C//DTD SVG 20010904//EN"
 "http://www.w3.org/TR/2001/REC-SVG-20010904/DTD/svg10.dtd">
<svg version="1.0" xmlns="http://www.w3.org/2000/svg"
 width="811.000000pt" height="805.000000pt" viewBox="0 0 811.000000 805.000000"
 preserveAspectRatio="xMidYMid meet">

<g transform="translate(0.000000,805.000000) scale(0.100000,-0.100000)"
fill="#000000" stroke="none">
<path d="M3662 7914 c-421 -43 -766 -136 -1163 -312 -215 -95 -568 -300 -623
-361 -11 -11 -23 -21 -28 -21 -51 0 -582 -503 -719 -680 -220 -286 -459 -693
-556 -950 -116 -305 -181 -528 -233 -800 -42 -223 -52 -346 -52 -695 0 -316
11 -499 38 -660 35 -212 133 -589 177 -688 13 -29 30 -70 37 -92 25 -78 112
-272 179 -400 207 -396 398 -654 725 -980 203 -202 299 -286 464 -401 158
-111 207 -140 383 -234 425 -226 835 -359 1309 -427 177 -26 738 -25 920 1
340 48 711 150 979 269 177 79 447 223 547 292 33 23 111 76 174 119 237 162
659 571 765 741 10 17 34 49 53 73 83 104 256 390 352 582 75 149 128 279 191
468 141 420 196 724 206 1142 10 439 -27 774 -126 1145 -81 303 -204 622 -338
875 -68 130 -271 438 -387 587 -97 125 -459 493 -575 586 -117 93 -517 355
-601 393 -41 19 -86 42 -100 50 -128 78 -519 226 -761 288 -112 29 -364 72
-499 86 -181 18 -584 20 -738 4z m708 -95 c216 -18 516 -82 757 -160 483 -157
968 -441 1337 -784 444 -412 762 -877 966 -1410 204 -535 284 -1009 266 -1575
-8 -248 -18 -343 -51 -525 -177 -962 -669 -1777 -1410 -2337 -243 -184 -423
-289 -585 -341 -94 -31 -310 -42 -540 -28 -179 11 -330 48 -519 125 -433 177
-776 501 -986 931 -229 467 -262 1004 -94 1500 87 254 210 463 400 679 301
340 412 507 519 782 85 217 124 441 124 704 -1 452 -132 852 -397 1210 -88
119 -274 305 -392 393 -252 186 -561 313 -862 352 -147 19 -373 19 -514 -1
-61 -8 -125 -14 -143 -12 l-31 3 33 32 c64 62 385 211 634 294 285 95 627 165
883 179 156 9 430 4 605 -11z m-2916 -2090 c3 -3 48 -147 100 -320 134 -445
290 -899 440 -1282 81 -206 113 -277 124 -277 5 0 14 19 21 43 72 242 387 936
631 1387 56 104 244 434 255 447 5 8 611 -19 618 -26 6 -6 -6 -34 -30 -73 -98
-155 -446 -844 -563 -1113 -92 -213 -169 -411 -245 -636 -142 -418 -175 -572
-175 -815 0 -280 62 -494 215 -744 31 -52 72 -120 90 -151 48 -83 201 -312
267 -401 32 -42 58 -82 58 -88 0 -13 -195 -10 -525 6 l-121 6 -24 37 c-13 20
-45 70 -70 111 -26 41 -92 147 -147 235 -245 389 -439 778 -735 1470 -138 323
-290 707 -387 980 -155 433 -361 1090 -364 1160 l-2 40 75 6 c91 8 486 6 494
-2z"/>
<path d="M4660 6375 c0 -4 35 -56 79 -114 223 -302 459 -708 510 -877 69 -233
68 -545 -4 -844 -55 -225 -241 -743 -381 -1060 -96 -217 -440 -903 -518 -1034
-37 -61 -66 -111 -66 -113 0 -2 140 -3 311 -3 l311 0 20 23 c28 31 328 589
437 812 119 242 236 508 305 690 102 271 128 335 137 340 41 26 452 -1094 647
-1760 l29 -100 264 -3 c145 -1 275 0 288 3 21 5 23 10 17 46 -7 44 -104 360
-198 649 -179 548 -438 1214 -648 1670 -219 476 -272 585 -364 760 -57 107
-138 255 -180 328 -91 158 -333 552 -350 569 -13 14 -646 31 -646 18z"/>
</g>
</svg>
